<svg width="32" height="32" viewBox="0 0 32 32" fill="none" xmlns="http://www.w3.org/2000/svg">
<rect width="32" height="32" rx="8" fill="#191B1E"/>
<path d="M14.0099 16.2908C14.0099 19.3795 11.4944 21.7358 8.40565 21.7358C5.31693 21.7358 2.83325 19.3795 2.83325 16.2908C2.83325 13.2021 5.31693 10.8458 8.40565 10.8458C11.4944 10.8458 14.0099 13.2021 14.0099 16.2908ZM5.04629 16.2908C5.04629 18.3287 6.46325 19.7456 8.42158 19.7456C10.3481 19.7456 11.7969 18.3287 11.7969 16.2908C11.7969 14.2688 10.3481 12.8359 8.42158 12.8359C6.46325 12.8359 5.04629 14.2688 5.04629 16.2908Z" fill="white"/>
<path d="M28.9999 16.2908C28.9999 19.3795 26.4844 21.7358 23.3957 21.7358C20.3069 21.7358 17.8233 19.3795 17.8233 16.2908C17.8233 13.2021 20.3069 10.8458 23.3957 10.8458C26.4844 10.8458 28.9999 13.2021 28.9999 16.2908ZM20.0363 16.2908C20.0363 18.3287 21.4533 19.7456 23.4116 19.7456C25.3381 19.7456 26.7869 18.3287 26.7869 16.2908C26.7869 14.2688 25.3381 12.8359 23.4116 12.8359C21.4533 12.8359 20.0363 14.2688 20.0363 16.2908Z" fill="white"/>
<path d="M17.0189 11.2285C17.0063 11.5118 16.8845 11.7792 16.6789 11.9746C16.4734 12.17 16.2002 12.2782 15.9166 12.2764C15.3586 12.2764 14.8143 11.7865 14.8143 11.2285C14.8237 10.9429 14.9442 10.6723 15.15 10.4741C15.3558 10.2759 15.6308 10.1657 15.9166 10.1671C16.059 10.163 16.2008 10.1874 16.3337 10.2388C16.4666 10.2902 16.5879 10.3676 16.6905 10.4664C16.7932 10.5653 16.8751 10.6836 16.9314 10.8144C16.9878 10.9453 17.0176 11.086 17.0189 11.2285Z" fill="white"/>
</svg>
